{
  "title": "Silicon_Valley-S01E00-08-[720p-HDTV-x264]-SCENERLS",
  "uid": 10417403,
  "size": 7140507384,
  "categoryP": "video",
  "categoryS": "hd___tv_shows",
  "magnet": "?xt=urn:btih:6c12c4e652beae13459829978406f5c3b6a8101a&amp;dn=Silicon_Valley-S01E00-08-%5B720p-HDTV-x264%5D-SCENERLS&amp;tr=udp%3A%2F%2Ftracker.openbittorrent.com%3A80&amp;tr=udp%3A%2F%2Fopen.demonii.com%3A1337&amp;tr=udp%3A%2F%2Ftracker.coppersurfer.tk%3A6969&amp;tr=udp%3A%2F%2Fexodus.desync.com%3A6969",
  "seeders": 118,
  "leechers": 58,
  "uploader": "SMiL3MAN",
  "files": 9,
  "time": 1403604162,
  "description": "Silicon_Valley-S01E00-08_Complete_Season_1-[720p-HDTV-x264]-SCENERLS\n\n==============\n\nSeries info: http://www.imdb.com/title/tt2575988/\n\n==============\n\nFiLELiST:\nSilicon.Valley.S01E00.Making.Of.720p.HDTV.x264-BATV\nSilicon.Valley.S01E01.720p.HDTV.x264-KILLERS (Minimum Viable Product)\nSilicon.Valley.S01E02.720p.HDTV.x264-2HD (The Cap Table)\nSilicon.Valley.S01E03.720p.HDTV.x264-KILLERS (Articles of Incorporation)\nSilicon.Valley.S01E04.720p.HDTV.x264-KILLERS (Fiduciary Duties)\nSilicon.Valley.S01E05.720p.HDTV.x264-KILLERS (Signaling Risk)\nSilicon.Valley.S01E06.720p.HDTV.x264-2HD (Third Part Insourcing)\nSilicon.Valley.S01E07.PROPER.720p.HDTV.x264-BATV (Proof Of Concept)\nSilicon.Valley.S01E08.720p.HDTV.x264-KILLERS (Optimal Tip-to-Tip Efficiency)\n\n==============\n\nMedia Info for Episode 1:\n\nFormat                                   : Matroska\nFormat version                           : Version 4 / Version 2\nFile size                                : 805 MiB\nDuration                                 : 29mn 13s\nOverall bit rate                         : 3 849 Kbps\nEncoded date                             : UTC 2014-04-07 02:41:51\nWriting application                      : mkvmerge v6.0.0 ('Coming Up For Air') built on Jan 20 2013 10:28:01\nWriting library                          : libebml v1.3.0 + libmatroska v1.4.0\n\nVideo\nID                                       : 1\nFormat                                   : AVC\nFormat/Info                              : Advanced Video Codec\nFormat profile                           : &lt;a class=&quot;__cf_email__&quot; href=&quot;/cdn-cgi/l/email-protection&quot; data-cfemail=&quot;3d75545a557d7109130c&quot;&gt;[email&amp;#160;protected]&lt;/a&gt;&lt;script cf-hash='f9e31' type=&quot;text/javascript&quot;&gt;\n/* &lt;![CDATA[ */!function(){try{var t=&quot;currentScript&quot;in document?document.currentScript:function(){for(var t=document.getElementsByTagName(&quot;script&quot;),e=t.length;e--;)if(t[e].getAttribute(&quot;cf-hash&quot;))return t[e]}();if(t&amp;&amp;t.previousSibling){var e,r,n,i,c=t.previousSibling,a=c.getAttribute(&quot;data-cfemail&quot;);if(a){for(e=&quot;&quot;,r=parseInt(a.substr(0,2),16),n=2;a.length-n;n+=2)i=parseInt(a.substr(n,2),16)^r,e+=String.fromCharCode(i);e=document.createTextNode(e),c.parentNode.replaceChild(e,c)}}}catch(u){}}();/* ]]&gt; */&lt;/script&gt;\nFormat settings, CABAC                   : Yes\nFormat settings, ReFrames                : 5 frames\nCodec ID                                 : V_MPEG4/ISO/AVC\nDuration                                 : 29mn 13s\nBit rate                                 : 3 388 Kbps\nWidth                                    : 1 280 pixels\nHeight                                   : 720 pixels\nDisplay aspect ratio                     : 16:9\nFrame rate mode                          : Constant\nFrame rate                               : 23.976 fps\nColor space                              : YUV\nChroma subsampling                       : 4:2:0\nBit depth                                : 8 bits\nScan type                                : Progressive\nBits/(Pixel*Frame)                       : 0.153\nStream size                              : 708 MiB (88%)\nWriting library                          : x264 core 142 r2409 d6b4e63\nEncoding settings                        : cabac=1 / ref=5 / deblock=1:0:0 / analyse=0x3:0x113 / me=umh / subme=8 / psy=1 / psy_rd=1.00:0.00 / mixed_ref=1 / me_range=16 / chroma_me=1 / trellis=1 / 8x8dct=1 / cqm=0 / deadzone=21,11 / fast_pskip=1 / chroma_qp_offset=-2 / threads=18 / lookahead_threads=3 / sliced_threads=0 / nr=0 / decimate=1 / interlaced=0 / bluray_compat=0 / constrained_intra=0 / bframes=3 / b_pyramid=2 / b_adapt=2 / b_bias=0 / direct=3 / weightb=1 / open_gop=0 / weightp=2 / keyint=250 / keyint_min=23 / scenecut=40 / intra_refresh=0 / rc_lookahead=50 / rc=crf / mbtree=1 / crf=18.0 / qcomp=0.60 / qpmin=0 / qpmax=69 / qpstep=4 / ip_ratio=1.40 / aq=1:1.00\nLanguage                                 : English\nDefault                                  : Yes\nForced                                   : No\nMatrix coefficients                      : BT.709\n\nAudio\nID                                       : 2\nFormat                                   : AC-3\nFormat/Info                              : Audio Coding 3\nMode extension                           : CM (complete main)\nFormat settings, Endianness              : Big\nCodec ID                                 : A_AC3\nDuration                                 : 29mn 13s\nBit rate mode                            : Constant\nBit rate                                 : 384 Kbps\nChannel(s)                               : 6 channels\nChannel positions                        : Front: L C R, Side: L R, LFE\nSampling rate                            : 48.0 KHz\nBit depth                                : 16 bits\nCompression mode                         : Lossy\nStream size                              : 80.3 MiB (10%)\nDefault                                  : Yes\nForced                                   : No\n\n==============\n\ntntvillage[dot]scambioetico[dot]org",
  "parsed": {
    "xt": "urn:btih:6c12c4e652beae13459829978406f5c3b6a8101a",
    "dn": "Silicon_Valley-S01E00-08-[720p-HDTV-x264]-SCENERLS",
    "tr": [
      "udp://exodus.desync.com:6969",
      "udp://open.demonii.com:1337",
      "udp://tracker.coppersurfer.tk:6969",
      "udp://tracker.openbittorrent.com:80"
    ],
    "infoHash": "6c12c4e652beae13459829978406f5c3b6a8101a",
    "infoHashBuffer": {
      "type": "Buffer",
      "data": [
        108,
        18,
        196,
        230,
        82,
        190,
        174,
        19,
        69,
        152,
        41,
        151,
        132,
        6,
        245,
        195,
        182,
        168,
        16,
        26
      ]
    },
    "name": "Silicon_Valley-S01E00-08-[720p-HDTV-x264]-SCENERLS",
    "announce": [
      "udp://exodus.desync.com:6969",
      "udp://open.demonii.com:1337",
      "udp://tracker.coppersurfer.tk:6969",
      "udp://tracker.openbittorrent.com:80"
    ],
    "urlList": []
  },
  "previous": 176,
  "peers": 19,
  "last_updated": "2016-12-25T03:54:55.076Z"
}